# xmcd
#
# Track frame offsets:
#	150
#	11102
#	26112
#	36726
#	47076
#	60692
#	71142
#	80504
#	96448
#	110206
#	122765
#	133981
#
# Disc length: 1951 seconds
#
# Revision: 1
# Processed by: cddbd v1.5.2PL0 Copyright (c) Steve Scherf et al.
# Submitted via: audiograbber 1.83.01
#
DISCID=bd079d0c
DTITLE=Hank Williams - Vintage Vaults - Volume 4
DYEAR=1900
DGENRE=Country
TTITLE0=Hey Good Lookin'
TTITLE1=(I Heard That) Lonesome Whistle
TTITLE2=Lovesick Blues
TTITLE3=Kaw-Liga
TTITLE4=Cold Cold Heart
TTITLE5=Six More Miles
TTITLE6=Baby We're Really In Love
TTITLE7=Your Cheatin' Heart
TTITLE8=You Win Again
TTITLE9=A Mansion On The Hill
TTITLE10=Move It On Over
TTITLE11=I'm So Lonesome I Could Cry
EXTD=
EXTT0=
EXTT1=
EXTT2=
EXTT3=
EXTT4=
EXTT5=
EXTT6=
EXTT7=
EXTT8=
EXTT9=
EXTT10=
EXTT11=
PLAYORDER=
